<?xml version="1.0" encoding="UTF-8"?>
<!DOCTYPE svg PUBLIC "-//W3C//DTD SVG 1.1//EN" "http://www.w3.org/Graphics/SVG/1.1/DTD/svg11.dtd">
<!-- Creator: CorelDRAW -->
<svg xmlns="http://www.w3.org/2000/svg" xml:space="preserve" width="2048px" height="2048px" style="shape-rendering:geometricPrecision; text-rendering:geometricPrecision; image-rendering:optimizeQuality; fill-rule:evenodd; clip-rule:evenodd"
viewBox="0 0 2048 2048"
 xmlns:xlink="http://www.w3.org/1999/xlink">
 <defs>
  <style type="text/css">
   <![CDATA[
    .fil1 {fill:none}
    .fil0 {fill:#FF5722}
    .fil2 {fill:#FFFFFE}
    .fil3 {fill:#FFFFFE;fill-rule:nonzero}
   ]]>
  </style>
 </defs>
 <g id="Layer_x0020_1">
  <metadata id="CorelCorpID_0Corel-Layer"/>
  <rect class="fil0" width="2048" height="2048" rx="256.001" ry="256.001"/>
  <polygon class="fil1" points="255.999,255.999 1792,255.999 1792,1792 255.999,1792 "/>
  <path class="fil2" d="M1056 707.913c61.3689,6.31182 117.416,30.5764 162.803,67.4552l84.6272 -84.6272c12.4949,-12.4949 32.7555,-12.4949 45.2504,0 12.4949,12.4949 12.4949,32.7555 0,45.2504l-84.6296 84.6296c36.9048,45.4193 61.1764,101.511 67.4682,162.927l119.653 0c17.6043,0 31.8756,14.2713 31.8756,31.8756 0,17.6043 -14.2713,31.8756 -31.8756,31.8756l-119.65 0c-6.29174,61.4174 -30.5646,117.51 -67.4693,162.928l84.6284 84.6284c12.4949,12.4949 12.4949,32.7555 0,45.2504 -12.4949,12.4949 -32.7555,12.4949 -45.2504,0l-84.6284 -84.6284c-45.3874,36.8776 -101.434,61.1422 -162.802,67.454l0 119.665c0,17.6728 -14.328,32.0008 -32.0008,32.0008 -17.6728,0 -32.0008,-14.328 -32.0008,-32.0008l0 -119.665c-61.3689,-6.31182 -117.416,-30.5764 -162.803,-67.454l-84.6284 84.6284c-12.4949,12.4949 -32.7555,12.4949 -45.2504,0 -12.4949,-12.4949 -12.4949,-32.7555 0,-45.2504l84.6308 -84.632c-36.9024,-45.4181 -61.1752,-101.509 -67.4682,-162.924l-119.654 0c-17.6043,0 -31.8756,-14.2713 -31.8756,-31.8756 0,-17.6043 14.2713,-31.8756 31.8756,-31.8756l119.65 0c6.29174,-61.4174 30.5646,-117.509 67.4682,-162.928l-84.6284 -84.6284c-12.4949,-12.4949 -12.4949,-32.7555 0,-45.2504 12.4949,-12.4949 32.7555,-12.4949 45.2504,0l84.6272 84.6272c45.3874,-36.8788 101.436,-61.1445 162.806,-67.4564l0 -119.663c0,-17.6728 14.328,-32.0008 32.0008,-32.0008 17.6728,0 32.0008,14.328 32.0008,32.0008l0 119.663z"/>
  <path class="fil3" d="M1024 236.249c35.3422,0 67.3418,14.328 90.5068,37.4929 23.165,23.165 37.4929,55.1646 37.4929,90.5068 0,35.341 -14.328,67.3418 -37.4929,90.5068 -23.165,23.1638 -55.1646,37.4929 -90.5068,37.4929 -35.3422,0 -67.3418,-14.3291 -90.5068,-37.4929 -23.165,-23.165 -37.4929,-55.1658 -37.4929,-90.5068 0,-35.3422 14.328,-67.3418 37.4929,-90.5068 23.165,-23.165 55.1646,-37.4929 90.5068,-37.4929z"/>
  <path class="fil3" d="M1024 1555.75c35.3422,0 67.3418,14.3291 90.5068,37.4929 23.165,23.165 37.4929,55.1658 37.4929,90.5068 0,35.3422 -14.328,67.3418 -37.4929,90.5068 -23.165,23.165 -55.1646,37.4929 -90.5068,37.4929 -35.3422,0 -67.3418,-14.328 -90.5068,-37.4929 -23.165,-23.165 -37.4929,-55.1646 -37.4929,-90.5068 0,-35.341 14.328,-67.3418 37.4929,-90.5068 23.165,-23.1638 55.1646,-37.4929 90.5068,-37.4929z"/>
  <path class="fil3" d="M1581.02 466.979c24.9945,24.9921 37.4929,57.7524 37.4929,90.5068 0,32.752 -12.4984,65.5123 -37.4929,90.5068 -24.9933,24.9933 -57.7548,37.4929 -90.5068,37.4929 -32.752,0 -65.5123,-12.4996 -90.5068,-37.4929 -24.9933,-24.9945 -37.4929,-57.7548 -37.4929,-90.5068 0,-32.752 12.4996,-65.5134 37.4929,-90.5068 24.9945,-24.9945 57.7548,-37.4929 90.5068,-37.4929 32.7544,0 65.5146,12.4984 90.5068,37.4929z"/>
  <path class="fil3" d="M647.992 1400.01c24.9933,24.9945 37.4929,57.7548 37.4929,90.5068 0,32.752 -12.4996,65.5134 -37.4929,90.5068 -24.9945,24.9945 -57.7548,37.4929 -90.5068,37.4929 -32.7544,0 -65.5146,-12.4984 -90.5068,-37.4929 -24.9945,-24.9921 -37.4929,-57.7524 -37.4929,-90.5068 0,-32.752 12.4984,-65.5123 37.4929,-90.5068 24.9933,-24.9933 57.7548,-37.4929 90.5068,-37.4929 32.752,0 65.5123,12.4996 90.5068,37.4929z"/>
  <path class="fil3" d="M1811.75 1024c0,35.3422 -14.328,67.3418 -37.4929,90.5068 -23.165,23.165 -55.1646,37.4929 -90.5068,37.4929 -35.341,0 -67.3418,-14.328 -90.5068,-37.4929 -23.1638,-23.165 -37.4929,-55.1646 -37.4929,-90.5068 0,-35.3422 14.3291,-67.3418 37.4929,-90.5068 23.165,-23.165 55.1658,-37.4929 90.5068,-37.4929 35.3422,0 67.3418,14.328 90.5068,37.4929 23.165,23.165 37.4929,55.1646 37.4929,90.5068z"/>
  <path class="fil3" d="M492.248 1024c0,35.3422 -14.3291,67.3418 -37.4929,90.5068 -23.165,23.165 -55.1658,37.4929 -90.5068,37.4929 -35.3422,0 -67.3418,-14.328 -90.5068,-37.4929 -23.165,-23.165 -37.4929,-55.1646 -37.4929,-90.5068 0,-35.3422 14.328,-67.3418 37.4929,-90.5068 23.165,-23.165 55.1646,-37.4929 90.5068,-37.4929 35.341,0 67.3418,14.328 90.5068,37.4929 23.1638,23.165 37.4929,55.1646 37.4929,90.5068z"/>
  <path class="fil3" d="M1581.02 1581.02c-24.9921,24.9945 -57.7524,37.4929 -90.5068,37.4929 -32.752,0 -65.5123,-12.4984 -90.5068,-37.4929 -24.9933,-24.9933 -37.4929,-57.7548 -37.4929,-90.5068 0,-32.752 12.4996,-65.5123 37.4929,-90.5068 24.9945,-24.9933 57.7548,-37.4929 90.5068,-37.4929 32.752,0 65.5134,12.4996 90.5068,37.4929 24.9945,24.9945 37.4929,57.7548 37.4929,90.5068 0,32.7544 -12.4984,65.5146 -37.4929,90.5068z"/>
  <path class="fil3" d="M647.992 647.992c-24.9945,24.9933 -57.7548,37.4929 -90.5068,37.4929 -32.752,0 -65.5134,-12.4996 -90.5068,-37.4929 -24.9945,-24.9945 -37.4929,-57.7548 -37.4929,-90.5068 0,-32.7544 12.4984,-65.5146 37.4929,-90.5068 24.9921,-24.9945 57.7524,-37.4929 90.5068,-37.4929 32.752,0 65.5123,12.4984 90.5068,37.4929 24.9933,24.9933 37.4929,57.7548 37.4929,90.5068 0,32.752 -12.4996,65.5123 -37.4929,90.5068z"/>
 </g>
</svg>
